<?xml version="1.0"?>
<svg width="52" height="65" xmlns="http://www.w3.org/2000/svg" xmlns:svg="http://www.w3.org/2000/svg" enable-background="new 0 0 52 52" version="1.1" xml:space="preserve">
 <g class="layer">
  <title>Layer 1</title>
  <g id="svg_1">
   <path d="m4.19,49.81c0.29,-7.47 7.39,-10.98 7.46,-11.01c0.5,-0.24 0.71,-0.84 0.47,-1.34c-0.24,-0.5 -0.84,-0.71 -1.33,-0.47c-0.34,0.16 -8.26,4.04 -8.6,12.75c-0.02,0.55 0.41,1.01 0.96,1.03c0.57,0.02 1.02,-0.41 1.04,-0.96z" fill="#f76707" id="svg_2"/>
   <path d="m21.04,40.17c0.61,-0.52 1.54,-1.09 2.47,-0.83c0.53,0.15 1.08,-0.15 1.23,-0.69s-0.16,-1.08 -0.69,-1.23c-1.41,-0.4 -2.9,0.02 -4.3,1.22c-0.96,0.82 -2.06,1.3 -3.17,1.38c-0.96,0.08 -1.57,-0.12 -1.79,-0.23c-0.14,-0.16 -0.33,-0.28 -0.56,-0.32c-0.54,-0.11 -1.07,0.24 -1.18,0.78c-0.06,0.31 0.05,0.68 0.26,0.91c0.4,0.45 1.43,0.88 2.86,0.88c1.85,0 3.51,-0.71 4.87,-1.87z" fill="#f76707" id="svg_3"/>
   <path d="m32.03,13.7c-0.01,0 -0.87,-0.47 -1.42,-1.39c-0.1,-0.19 -1.01,-1.77 -3.78,-2.01c-1.73,-3 -4.87,-4.85 -8.36,-4.85c-5.34,0 -9.68,4.33 -9.68,9.66c0,5.34 4.34,9.68 9.68,9.68c3.75,0 7.07,-2.13 8.67,-5.46c0.56,0.11 1.05,0.41 1.38,0.87c0.73,1.05 1.7,3.14 2.11,7.06c0,0.06 0.01,0.74 0.19,1.71c-4.03,-2.41 -8.08,-1.59 -10.04,-0.93c-0.93,0.31 -1.91,0.24 -2.7,-0.2c-8.01,-4.38 -15.16,1.75 -15.23,1.82c-0.41,0.36 -0.45,0.99 -0.09,1.41c0.36,0.41 1,0.45 1.41,0.09c0.06,-0.06 6.15,-5.29 12.94,-1.56c0.38,0.2 0.78,0.35 1.2,0.46c-1.87,1.47 -3.59,2.19 -3.61,2.2c-0.51,0.21 -0.75,0.79 -0.54,1.3c0.2,0.51 0.79,0.76 1.3,0.55c0.13,-0.06 3.28,-1.36 5.95,-4.17c0,0 0,0 0,0c2.93,-0.99 8.47,-1.62 12.73,5.26c0.3,0.47 0.91,0.61 1.38,0.32c0.47,-0.29 0.61,-0.91 0.32,-1.38c-0.67,-1.08 -1.37,-2 -2.1,-2.78c-1.06,-1.93 -1.11,-4.1 -1.12,-4.21c-0.37,-3.56 -1.2,-6.29 -2.46,-8.09c-0.57,-0.81 -1.38,-1.36 -2.31,-1.61c0.19,-0.75 0.3,-1.54 0.3,-2.34c0,-0.89 -0.14,-1.76 -0.37,-2.6c0.77,0.29 1.05,0.71 1.08,0.76c0.86,1.45 2.1,2.13 2.28,2.22c11.41,5.43 16.18,19.54 16.23,19.68c0.03,0.09 0.07,0.18 0.13,0.26c0.22,0.33 0.92,1.33 -1.01,3.22c-0.93,0.93 -2.14,1.67 -3.51,2.15c-1.55,0.54 -3.9,1.61 -6.79,3.1c-6.03,3.11 -13.48,2.22 -16.85,0.6c-1.13,-0.54 -2.3,-0.98 -3.28,-0.52c-1.01,0.47 -1.29,1.57 -1.65,2.95c-0.12,0.48 -0.26,1.02 -0.45,1.61c-0.88,2.86 -3.68,4.08 -3.71,4.09c-0.51,0.21 -0.75,0.79 -0.54,1.3c0.21,0.51 0.8,0.76 1.31,0.54c0.15,-0.06 3.69,-1.57 4.85,-5.33c0.2,-0.63 0.35,-1.2 0.48,-1.71c0.16,-0.63 0.38,-1.5 0.55,-1.63c0.01,-0.01 0.32,-0.1 1.57,0.5c3.74,1.8 12,2.8 18.63,-0.62c3.56,-1.83 5.52,-2.64 6.53,-2.99c1.65,-0.57 3.13,-1.48 4.27,-2.62c2.61,-2.57 2,-4.6 1.32,-5.65c-0.54,-1.59 -5.5,-15.16 -17.19,-20.72zm-13.56,9.09c-4.24,0 -7.68,-3.45 -7.68,-7.68c0,-4.22 3.44,-7.66 7.68,-7.66c4.28,0 7.68,3.46 7.68,7.66c0,4.15 -3.33,7.68 -7.68,7.68z" fill="#f76707" id="svg_4"/>
   <path d="m39.17,38.12c-0.49,0.25 -0.69,0.85 -0.44,1.34c0.24,0.5 0.85,0.69 1.34,0.45c2.25,-1.13 3.58,-2.57 3.96,-4.3c0.5,-2.3 -0.97,-4.16 -1.03,-4.24c-0.35,-0.43 -0.98,-0.5 -1.41,-0.15c-0.43,0.35 -0.49,0.98 -0.15,1.41c0.01,0.01 0.93,1.2 0.63,2.56c-0.24,1.1 -1.21,2.09 -2.9,2.93z" fill="#f76707" id="svg_5"/>
   <path d="m18.47,9.45c-3.14,0 -5.68,2.54 -5.68,5.66c0,3.13 2.54,5.68 5.68,5.68c3.19,0 5.68,-2.6 5.68,-5.68c0,-3.09 -2.51,-5.66 -5.68,-5.66zm0,9.34c-2.03,0 -3.68,-1.65 -3.68,-3.68c0,-2.02 1.65,-3.66 3.68,-3.66c2.05,0 3.68,1.66 3.68,3.66c0,1.99 -1.62,3.68 -3.68,3.68z" fill="#f76707" id="svg_6"/>
  </g>
 </g>
</svg>